<?xml version="1.0" encoding="utf-8"?>
<!-- Generator: Adobe Illustrator 23.0.3, SVG Export Plug-In . SVG Version: 6.00 Build 0)  -->
<svg version="1.1" id="Layer_1" xmlns="http://www.w3.org/2000/svg" xmlns:xlink="http://www.w3.org/1999/xlink" x="0px" y="0px"
	 viewBox="0 0 492 566" style="enable-background:new 0 0 492 566;" xml:space="preserve">
<g>
	<g>
		<path d="M207.4,67.7l0.2-0.8v329.2L103.9,292.6c-5.1-5.1-11.9-7.8-19.1-7.8c-7.2,0-14,2.8-19.1,7.8l-16.1,16.1
			c-5.1,5.1-7.9,11.8-7.9,19c0,7.2,2.8,14,7.8,19l177.4,177.4c5.1,5.1,11.9,7.9,19.1,7.8c7.2,0,14-2.8,19.1-7.8l177.4-177.4
			c5.1-5.1,7.8-11.8,7.8-19c0-7.2-2.8-13.9-7.8-19l-16.1-16.1c-5.1-5.1-11.8-7.8-19-7.8c-7.2,0-13.6,2.8-18.7,7.8L284.4,397.3v-330
			c0-14.8-12.8-27.3-27.6-27.3H234C219.2,40,207.4,52.8,207.4,67.7z"/>
	</g>
</g>
</svg>
